<mxfile host="Electron" modified="2024-01-17T13:35:56.532Z" agent="Mozilla/5.0 (Windows NT 10.0; Win64; x64) AppleWebKit/537.36 (KHTML, like Gecko) draw.io/21.6.5 Chrome/114.0.5735.243 Electron/25.3.1 Safari/537.36" etag="mf3Wz1nLVkaMWNLqxawo" version="21.6.5" type="device">
  <diagram name="Страница 1" id="r7xLqQCiDB0AuHNer2oG">
    <mxGraphModel dx="1418" dy="820" grid="1" gridSize="10" guides="1" tooltips="1" connect="1" arrows="1" fold="1" page="1" pageScale="1" pageWidth="827" pageHeight="1169" math="0" shadow="0">
      <root>
        <mxCell id="0" />
        <mxCell id="1" parent="0" />
        <mxCell id="scm8D5Yb6kqmPGoBiLWh-3" value="" style="edgeStyle=orthogonalEdgeStyle;rounded=0;orthogonalLoop=1;jettySize=auto;html=1;" edge="1" parent="1" source="scm8D5Yb6kqmPGoBiLWh-1" target="scm8D5Yb6kqmPGoBiLWh-2">
          <mxGeometry relative="1" as="geometry" />
        </mxCell>
        <mxCell id="scm8D5Yb6kqmPGoBiLWh-1" value="Start of programm" style="rounded=1;whiteSpace=wrap;html=1;" vertex="1" parent="1">
          <mxGeometry x="354" y="40" width="120" height="60" as="geometry" />
        </mxCell>
        <mxCell id="scm8D5Yb6kqmPGoBiLWh-5" value="" style="edgeStyle=orthogonalEdgeStyle;rounded=0;orthogonalLoop=1;jettySize=auto;html=1;entryX=0.5;entryY=0;entryDx=0;entryDy=0;" edge="1" parent="1" source="scm8D5Yb6kqmPGoBiLWh-2" target="scm8D5Yb6kqmPGoBiLWh-8">
          <mxGeometry relative="1" as="geometry" />
        </mxCell>
        <mxCell id="scm8D5Yb6kqmPGoBiLWh-2" value="Add &lt;br&gt;array 1 and array 2" style="whiteSpace=wrap;html=1;rounded=1;" vertex="1" parent="1">
          <mxGeometry x="354" y="180" width="120" height="60" as="geometry" />
        </mxCell>
        <mxCell id="scm8D5Yb6kqmPGoBiLWh-7" value="" style="edgeStyle=orthogonalEdgeStyle;rounded=0;orthogonalLoop=1;jettySize=auto;html=1;" edge="1" parent="1" source="scm8D5Yb6kqmPGoBiLWh-4" target="scm8D5Yb6kqmPGoBiLWh-6">
          <mxGeometry relative="1" as="geometry" />
        </mxCell>
        <mxCell id="scm8D5Yb6kqmPGoBiLWh-4" value="Если array1[i].Lenght &amp;lt;= 3" style="rhombus;whiteSpace=wrap;html=1;rounded=1;" vertex="1" parent="1">
          <mxGeometry x="314" y="420" width="200" height="80" as="geometry" />
        </mxCell>
        <mxCell id="scm8D5Yb6kqmPGoBiLWh-6" value="array2[count] = array1[i]" style="whiteSpace=wrap;html=1;rounded=1;" vertex="1" parent="1">
          <mxGeometry x="354" y="590" width="120" height="60" as="geometry" />
        </mxCell>
        <mxCell id="scm8D5Yb6kqmPGoBiLWh-9" value="" style="edgeStyle=orthogonalEdgeStyle;rounded=0;orthogonalLoop=1;jettySize=auto;html=1;" edge="1" parent="1" source="scm8D5Yb6kqmPGoBiLWh-8" target="scm8D5Yb6kqmPGoBiLWh-4">
          <mxGeometry relative="1" as="geometry" />
        </mxCell>
        <mxCell id="scm8D5Yb6kqmPGoBiLWh-12" value="" style="edgeStyle=orthogonalEdgeStyle;rounded=0;orthogonalLoop=1;jettySize=auto;html=1;" edge="1" parent="1" source="scm8D5Yb6kqmPGoBiLWh-8" target="scm8D5Yb6kqmPGoBiLWh-11">
          <mxGeometry relative="1" as="geometry" />
        </mxCell>
        <mxCell id="scm8D5Yb6kqmPGoBiLWh-8" value="i &amp;lt; array1.length" style="rhombus;whiteSpace=wrap;html=1;" vertex="1" parent="1">
          <mxGeometry x="324" y="290" width="180" height="80" as="geometry" />
        </mxCell>
        <mxCell id="scm8D5Yb6kqmPGoBiLWh-10" value="" style="endArrow=classic;html=1;rounded=0;exitX=0;exitY=0.5;exitDx=0;exitDy=0;entryX=0;entryY=0.5;entryDx=0;entryDy=0;" edge="1" parent="1" source="scm8D5Yb6kqmPGoBiLWh-4" target="scm8D5Yb6kqmPGoBiLWh-8">
          <mxGeometry width="50" height="50" relative="1" as="geometry">
            <mxPoint x="390" y="450" as="sourcePoint" />
            <mxPoint x="440" y="400" as="targetPoint" />
            <Array as="points">
              <mxPoint x="240" y="460" />
              <mxPoint x="240" y="330" />
            </Array>
          </mxGeometry>
        </mxCell>
        <mxCell id="scm8D5Yb6kqmPGoBiLWh-11" value="PrintArray2" style="rounded=1;whiteSpace=wrap;html=1;" vertex="1" parent="1">
          <mxGeometry x="614" y="300" width="120" height="60" as="geometry" />
        </mxCell>
        <mxCell id="scm8D5Yb6kqmPGoBiLWh-13" value="" style="endArrow=classic;html=1;rounded=0;exitX=0;exitY=0.5;exitDx=0;exitDy=0;entryX=0;entryY=0.5;entryDx=0;entryDy=0;" edge="1" parent="1" source="scm8D5Yb6kqmPGoBiLWh-6" target="scm8D5Yb6kqmPGoBiLWh-8">
          <mxGeometry width="50" height="50" relative="1" as="geometry">
            <mxPoint x="390" y="450" as="sourcePoint" />
            <mxPoint x="440" y="400" as="targetPoint" />
            <Array as="points">
              <mxPoint x="240" y="620" />
              <mxPoint x="240" y="330" />
            </Array>
          </mxGeometry>
        </mxCell>
      </root>
    </mxGraphModel>
  </diagram>
</mxfile>
